<svg xmlns="http://www.w3.org/2000/svg" xmlns:xlink="http://www.w3.org/1999/xlink" version="1.1" viewBox="0 0 242.76 303.3925" style="enable-background:new 0 0 242.76 242.714;" xml:space="preserve" x="0px" y="0px" overflow="visible"><g><path style="" d="M49.671,117.822V88.47c0-20.966,15.898-38.12,35.329-38.12   s35.328,17.154,35.328,35.07v32.401" fill="none" stroke="#000000" stroke-width="25"/></g><line style="" x1="85" y1="187.427" x2="85" y2="157.317" fill="none" stroke="#000000" stroke-width="25" stroke-linecap="round"/><g><path style="" d="M157.5,190.597c0,21.789-17.828,39.617-39.617,39.617H52.118   c-21.79,0-39.618-17.828-39.618-39.617v-36.448c0-21.79,17.828-39.618,39.618-39.618h65.765c21.789,0,39.617,17.828,39.617,39.618   V190.597z" fill="none" stroke="#000000" stroke-width="25"/></g><g><path d="M177.417,10.398c-6.713,5.928-10.382,13.249-10.904,21.759l-0.087,1.412l20.385,2.458l0.29-1.334   c1.151-5.294,3.257-9.259,6.258-11.784c3.026-2.547,6.708-3.785,11.255-3.785c4.65,0,8.369,1.209,11.053,3.594   c2.671,2.374,3.969,5.126,3.969,8.416c0,2.363-0.728,4.473-2.224,6.45c-0.69,0.89-2.962,3.129-9.789,8.662   c-5.816,4.713-9.608,8.88-11.591,12.738c-1.968,3.827-2.965,8.732-2.965,14.578l0.091,6.068l1.478-0.006h18.901l-0.026-1.526   c-0.109-6.235,0.582-9.038,1.182-10.292c0.604-1.263,2.332-3.605,7.14-7.596c8.015-6.655,13.123-11.805,15.616-15.743   c2.529-3.994,3.813-8.296,3.813-12.789c0-8.042-3.452-15.169-10.261-21.187c-6.755-5.967-15.923-8.993-27.251-8.993   C192.963,1.499,184.104,4.493,177.417,10.398z"/><path d="M203.748,0c-11.162,0-20.354,3.12-27.324,9.274c-7.021,6.203-10.859,13.871-11.407,22.792l-0.175,2.824l2.81,0.338   l17.625,2.125l2.711,0.327l0.58-2.668c1.078-4.962,3.015-8.648,5.757-10.955c2.745-2.31,6.11-3.432,10.289-3.432   c4.333,0,7.622,1.051,10.056,3.215c2.332,2.072,3.467,4.458,3.467,7.294c0,2.021-0.627,3.833-1.914,5.538   c-0.561,0.711-2.548,2.742-9.543,8.41c-5.981,4.846-9.9,9.17-11.981,13.217c-2.077,4.041-3.13,9.176-3.13,15.264   c0,0.623,0.024,2.307,0.069,4.619l0.055,2.944h2.944h17.375h3.053l-0.053-3.052c-0.11-6.256,0.601-8.712,1.034-9.62   c0.441-0.922,1.904-3.07,6.744-7.089c8.136-6.755,13.345-12.019,15.925-16.093c2.686-4.237,4.047-8.81,4.047-13.592   c0-8.49-3.623-15.996-10.768-22.31h-0.001C224.955,3.152,215.453,0,203.748,0L203.748,0z M168.01,32.25   c0.5-8.137,3.967-15.045,10.399-20.727C184.844,5.841,193.291,3,203.748,3c11.004,0,19.756,2.873,26.258,8.617   c6.502,5.746,9.755,12.433,9.755,20.062l0,0l0,0c0,4.223-1.193,8.219-3.58,11.987c-2.388,3.769-7.488,8.898-15.308,15.39   c-4.047,3.36-6.558,6.061-7.535,8.104c-0.892,1.868-1.34,5.083-1.34,9.643c0,0.429,0.004,0.87,0.013,1.322l0,0l0,0h-17.375   c-0.048-2.496-0.068-4.018-0.068-4.563l0,0l0,0c0-5.629,0.931-10.26,2.798-13.892c1.868-3.633,5.6-7.719,11.202-12.258   c5.601-4.539,8.947-7.514,10.041-8.922c1.683-2.225,2.527-4.676,2.527-7.356c0-3.711-1.492-6.888-4.474-9.537   c-2.979-2.648-6.998-3.972-12.049-3.972c-4.871,0-8.943,1.379-12.22,4.136c-3.278,2.758-5.53,6.963-6.758,12.614L168.01,32.25   L168.01,32.25L168.01,32.25z"/></g><g><rect x="193.135" y="93.249" width="20.375" height="22.125"/><path d="M215.01,91.75h-3h-17.375h-3v3v19.125v3h3h17.375h3v-3V94.75V91.75L215.01,91.75z M194.635,94.75h17.375v19.125l0,0l0,0   h-17.375V94.75L194.635,94.75L194.635,94.75z"/></g><text x="0" y="257.714" fill="#000000" font-size="5px" font-weight="bold" font-family="'Helvetica Neue', Helvetica, Arial-Unicode, Arial, Sans-serif">Created by Seanau</text><text x="0" y="262.714" fill="#000000" font-size="5px" font-weight="bold" font-family="'Helvetica Neue', Helvetica, Arial-Unicode, Arial, Sans-serif">from the Noun Project</text></svg>